HIERARCHY
ROOT Hips
{
  OFFSET 54.0291 96.625 57.5594
  CHANNELS 6 Xposition Yposition Zposition Zrotation Xrotation Yrotation
  JOINT spine
  {
    OFFSET 0 8.13249 0.467659
    CHANNELS 3 Zrotation Xrotation Yrotation
    JOINT spine1
    {
      OFFSET 0 10.3498 0
      CHANNELS 3 Zrotation Xrotation Yrotation
      JOINT spine2
      {
        OFFSET 0 9.91699 0
        CHANNELS 3 Zrotation Xrotation Yrotation
        JOINT Neck
        {
          OFFSET 0 25.461 1.2139
          CHANNELS 3 Zrotation Xrotation Yrotation
          JOINT Head
          {
            OFFSET 0 7.69245 0
            CHANNELS 3 Zrotation Xrotation Yrotation
            End Site
            {
              OFFSET 0 18.62 -6.14063
            }
          }
        }
        JOINT RightShoulder
        {
          OFFSET -4.17575 10.7096 -0.581445
          CHANNELS 3 Zrotation Xrotation Yrotation
          JOINT RightArm
          {
            OFFSET 0 14.0466 0
            CHANNELS 3 Zrotation Xrotation Yrotation
            JOINT RightArmRoll
            {
              OFFSET 0 7.09099 0
              CHANNELS 3 Zrotation Xrotation Yrotation
              JOINT RightForeArm
              {
                OFFSET 0 20.6535 0
                CHANNELS 3 Zrotation Xrotation Yrotation
                JOINT RightForeArmRoll
                {
                  OFFSET 0 7.95718 0
                  CHANNELS 3 Zrotation Xrotation Yrotation
                  JOINT RightHand
                  {
                    OFFSET 0 15.9683 0
                    CHANNELS 3 Zrotation Xrotation Yrotation
                    End Site
                    {
                      OFFSET 0 0 0
                    }
                  }
                }
              }
            }
          }
        }
        JOINT LeftShoulder
        {
          OFFSET 4.17575 10.7096 -0.581445
          CHANNELS 3 Zrotation Xrotation Yrotation
          JOINT LeftArm
          {
            OFFSET 0 14.0466 0
            CHANNELS 3 Zrotation Xrotation Yrotation
            JOINT LeftArmRoll
            {
              OFFSET 0 7.09098 0
              CHANNELS 3 Zrotation Xrotation Yrotation
              JOINT LeftForeArm
              {
                OFFSET 0 20.6535 0
                CHANNELS 3 Zrotation Xrotation Yrotation
                JOINT LeftForeArmRoll
                {
                  OFFSET 0 7.95718 0
                  CHANNELS 3 Zrotation Xrotation Yrotation
                  JOINT LeftHand
                  {
                    OFFSET 0 15.9683 0
                    CHANNELS 3 Zrotation Xrotation Yrotation
                    End Site
                    {
                      OFFSET 0 0 0
                    }
                  }
                }
              }
            }
          }
        }
      }
    }
  }
  JOINT RightUpLeg
  {
    OFFSET -7.20834 -1.32182 -1.10884
    CHANNELS 3 Zrotation Xrotation Yrotation
    JOINT RightUpLegRoll
    {
      OFFSET 0 18.7238 0
      CHANNELS 3 Zrotation Xrotation Yrotation
      JOINT RightLeg
      {
        OFFSET 0 -23.1866 0
        CHANNELS 3 Zrotation Xrotation Yrotation
        JOINT RightLegRoll
        {
          OFFSET 0 23.2624 0
          CHANNELS 3 Zrotation Xrotation Yrotation
          JOINT RightFoot
          {
            OFFSET 0 19.3621 0
            CHANNELS 3 Zrotation Xrotation Yrotation
            JOINT RightToeBase
            {
              OFFSET 0 16.1857 0
              CHANNELS 3 Zrotation Xrotation Yrotation
              End Site
              {
                OFFSET 0.00686052 7.83863 -0.903522
              }
            }
          }
        }
      }
    }
  }
  JOINT LeftUpLeg
  {
    OFFSET 7.20834 -1.32182 -1.10884
    CHANNELS 3 Zrotation Xrotation Yrotation
    JOINT LeftUpLegRoll
    {
      OFFSET 0 18.7239 0
      CHANNELS 3 Zrotation Xrotation Yrotation
      JOINT LeftLeg
      {
        OFFSET 0 23.1865 0
        CHANNELS 3 Zrotation Xrotation Yrotation
        JOINT LeftLegRoll
        {
          OFFSET 0 23.4775 0
          CHANNELS 3 Zrotation Xrotation Yrotation
          JOINT LeftFoot
          {
            OFFSET 0 19.147 0
            CHANNELS 3 Zrotation Xrotation Yrotation
            JOINT LeftToeBase
            {
              OFFSET 0 16.1857 0
              CHANNELS 3 Zrotation Xrotation Yrotation
              End Site
              {
                OFFSET -0.0307459 7.83863 -0.903522
              }
            }
          }
        }
      }
    }
  }
}
MOTION
Frames: 9
Frame Time: 0.00208333
54.8733 70.4285 25.8715 2.25454 35.1027 -4.21532 0.928653 2.92798 -0.206475 1.88904 9.85328 -0.586095 1.90237 11.4978 -0.619731 -12.4047 -33.2746 -5.68578 2.70222 -6.41027 -3.12793 42.0564 -11.6763 -7.59048 122.751 28.8255 -56.6509 1.5879e-007 1.65327e-006 -2.35834e-006 20.6591 84.134 -21.9002 1.86571e-006 -6.13156e-006 -3 8.02887 -4.95093 0.697502 -55.2186 -10.3625 6.45185 -112.226 27.3561 45.0861 -6.37977e-006 8.75591e-007 4.63666e-006 6.68921 73.461 -6.53529 2.2234e-006 7.34643e-006 2.99997 -8.02897 -4.95139 -0.69765 37.7632 76.3291 143.123 180 1.52583e-005 179.53 166.678 70.7434 -173.124 -5.41661e-007 -1.62237e-006 1.06307 -19.7513 68.5167 19.9853 8.13649 25.2327 -3.48765 -52.1489 73.4302 -131.167 4.47153e-006 -3.51245e-005 -0.609987 -17.9838 -71.9926 -10.5706 1.01982e-006 -1.14719e-006 -1.49515 22.8347 70.0573 -21.5637 -8.13672 25.236 3.48744 
54.8565 70.5604 25.9653 2.24127 35.0992 -4.19654 0.929437 2.92261 -0.207043 1.89073 9.84254 -0.586625 1.90407 11.4871 -0.62029 -12.3221 -33.3741 -5.68375 2.66179 -6.40104 -3.13385 42.1453 -11.6643 -7.5782 122.836 29.0023 -56.5754 1.5879e-007 1.65327e-006 -2.35834e-006 21.1545 83.7588 -22.1675 1.86571e-006 -6.13156e-006 -3 8.02887 -4.95093 0.697502 -55.2116 -10.3674 6.45519 -112.315 27.5374 45.112 -6.37977e-006 8.75591e-007 4.63666e-006 6.06296 73.1318 -6.06767 2.2234e-006 7.34643e-006 2.99997 -8.02897 -4.95139 -0.69765 38.1197 76.5079 142.72 180 1.52583e-005 179.532 166.769 70.6216 -173.203 -5.41661e-007 -1.62237e-006 1.05565 -19.7683 68.5827 20.0433 8.13649 25.2327 -3.48765 -52.6371 73.5655 -130.631 4.47153e-006 -3.51245e-005 -0.607302 -17.9294 -71.8545 -10.512 1.01982e-006 -1.14719e-006 -1.48532 22.8597 70.1101 -21.6194 -8.13672 25.236 3.48744 
54.848 70.6819 26.0612 2.22737 35.0948 -4.177 0.930222 2.91723 -0.207576 1.89246 9.83177 -0.587238 1.90581 11.4763 -0.620931 -12.238 -33.4741 -5.67951 2.61883 -6.38999 -3.13835 42.2344 -11.6538 -7.56726 122.922 29.1815 -56.5046 1.5879e-007 1.65327e-006 -2.35834e-006 21.597 83.3798 -22.3808 1.86571e-006 -6.13156e-006 -3 8.02887 -4.95093 0.697502 -55.2045 -10.3723 6.4585 -112.407 27.7193 45.1399 -6.37977e-006 8.75591e-007 4.63666e-006 5.46005 72.8015 -5.62255 2.2234e-006 7.34643e-006 2.99997 -8.02897 -4.95139 -0.69765 38.4866 76.6874 142.306 180 1.52583e-005 179.533 166.862 70.4991 -173.282 -5.41661e-007 -1.62237e-006 1.04819 -19.7832 68.6471 20.1001 8.13649 25.2327 -3.48765 -53.1357 73.7001 -130.087 4.47153e-006 -3.51244e-005 -0.604799 -17.8757 -71.7163 -10.454 1.01982e-006 -1.14719e-006 -1.47571 22.8869 70.1627 -21.6753 -8.13672 25.236 3.48744 
54.8164 70.8257 26.1758 2.21276 35.0896 -4.15663 0.931017 2.91185 -0.208068 1.89422 9.82098 -0.587946 1.90758 11.4655 -0.621668 -12.1522 -33.575 -5.67274 2.57277 -6.37666 -3.14123 42.3237 -11.6452 -7.55789 123.011 29.3637 -56.4392 1.5879e-007 1.65327e-006 -2.35834e-006 21.9942 82.9971 -22.5477 1.86571e-006 -6.13156e-006 -3 8.02887 -4.95093 0.697502 -55.1972 -10.3772 6.46179 -112.5 27.9017 45.1697 -6.37977e-006 8.75591e-007 4.63666e-006 4.88006 72.4707 -5.19932 2.2234e-006 7.34643e-006 2.99997 -8.02897 -4.95139 -0.69765 38.864 76.8674 141.881 180 1.52583e-005 179.534 166.956 70.3757 -173.362 -5.41661e-007 -1.62237e-006 1.04068 -19.7953 68.7096 20.1551 8.13649 25.2327 -3.48765 -53.6448 73.834 -129.534 4.47153e-006 -3.51245e-005 -0.602505 -17.8229 -71.5781 -10.3967 1.01982e-006 -1.14719e-006 -1.46635 22.9164 70.2152 -21.7314 -8.13672 25.236 3.48744 
54.8087 70.9447 26.2677 2.19738 35.0836 -4.1353 0.931816 2.9064 -0.208515 1.89606 9.81008 -0.588728 1.90943 11.4546 -0.622481 -12.0644 -33.6762 -5.66341 2.52375 -6.36223 -3.14254 42.4133 -11.6379 -7.5498 123.103 29.5483 -56.3784 1.5879e-007 1.65327e-006 -2.35834e-006 22.3611 82.6109 -22.6834 1.86571e-006 -6.13156e-006 -3 8.02887 -4.95093 0.697502 -55.1901 -10.3822 6.46519 -112.595 28.0851 45.2017 -6.37977e-006 8.75591e-007 4.63666e-006 4.3202 72.1393 -4.79545 2.2234e-006 7.34643e-006 2.99997 -8.02897 -4.95139 -0.69765 39.2521 77.0483 141.444 180 1.52583e-005 179.536 167.052 70.2519 -173.443 -5.41661e-007 -1.62237e-006 1.03304 -19.8057 68.7715 20.2097 8.13649 25.2327 -3.48765 -54.1658 73.9672 -128.972 4.47153e-006 -3.51245e-005 -0.600458 -17.7722 -71.4402 -10.341 1.01982e-006 -1.14719e-006 -1.45728 22.9499 70.2679 -21.7882 -8.13672 25.236 3.48744 
54.8153 71.0382 26.341 2.18132 35.0766 -4.11297 0.932608 2.90087 -0.208922 1.89799 9.799 -0.589553 1.91136 11.4435 -0.623338 -11.9749 -33.7771 -5.65186 2.47253 -6.3481 -3.1425 42.5034 -11.6315 -7.54248 123.196 29.7345 -56.3205 1.5879e-007 1.65327e-006 -2.35834e-006 22.7089 82.2214 -22.7989 1.86571e-006 -6.13156e-006 -3 8.02887 -4.95093 0.697502 -55.1837 -10.3876 6.46881 -112.692 28.2703 45.2362 -6.37977e-006 8.75591e-007 4.63666e-006 3.77742 71.8067 -4.40828 2.2234e-006 7.34643e-006 2.99997 -8.02897 -4.95139 -0.69765 39.6512 77.23 140.995 180 1.52583e-005 179.537 167.149 70.1283 -173.525 -5.41661e-007 -1.62237e-006 1.02524 -19.8153 68.8347 20.2656 8.13649 25.2327 -3.48765 -54.7005 74.0999 -128.398 4.47153e-006 -3.51245e-005 -0.598652 -17.7244 -71.3023 -10.2873 1.01982e-006 -1.14719e-006 -1.44847 22.988 70.3212 -21.8462 -8.13672 25.236 3.48744 
54.7966 71.1694 26.4445 2.16466 35.0687 -4.08975 0.93339 2.89526 -0.209299 1.89997 9.78777 -0.59042 1.91335 11.4323 -0.624238 -11.884 -33.8777 -5.63832 2.41948 -6.33413 -3.14125 42.594 -11.626 -7.53589 123.291 29.922 -56.2654 1.5879e-007 1.65327e-006 -2.35834e-006 23.0378 81.8286 -22.8946 1.86571e-006 -6.13156e-006 -3 8.02887 -4.95093 0.697502 -55.1779 -10.3931 6.47258 -112.792 28.4571 45.2729 -6.37977e-006 8.75591e-007 4.63666e-006 3.2509 71.4727 -4.03705 2.2234e-006 7.34643e-006 2.99997 -8.02897 -4.95139 -0.69765 40.0626 77.4125 140.532 180 1.52583e-005 179.539 167.249 70.0047 -173.608 -5.41661e-007 -1.62237e-006 1.0173 -19.8243 68.8989 20.3226 8.13649 25.2327 -3.48765 -55.2489 74.2321 -127.813 4.47153e-006 -3.51245e-005 -0.597055 -17.6788 -71.1644 -10.2352 1.01982e-006 -1.14719e-006 -1.43988 23.03 70.3748 -21.9051 -8.13672 25.236 3.48744 
54.7775 71.2952 26.5397 2.14748 35.0598 -4.06575 0.934158 2.88959 -0.209652 1.90199 9.77643 -0.591327 1.91538 11.421 -0.625179 -11.7918 -33.9783 -5.62304 2.36497 -6.32019 -3.13891 42.685 -11.6211 -7.52997 123.389 30.1109 -56.2128 1.5879e-007 1.65327e-006 -2.35834e-006 23.3484 81.4322 -22.971 1.86571e-006 -6.13156e-006 -3 8.02887 -4.95093 0.697502 -55.1726 -10.3989 6.47646 -112.893 28.6452 45.3117 -6.37977e-006 8.75591e-007 4.63666e-006 2.73992 71.1373 -3.68105 2.2234e-006 7.34643e-006 2.99997 -8.02897 -4.95139 -0.69765 40.4874 77.5958 140.054 180 1.52583e-005 179.54 167.349 69.881 -173.691 -5.41661e-007 -1.62237e-006 1.00924 -19.8328 68.9639 20.3804 8.13649 25.2327 -3.48765 -55.8111 74.3637 -127.217 4.47153e-006 -3.51245e-005 -0.595631 -17.6347 -71.0263 -10.1843 1.01982e-006 -1.14719e-006 -1.43149 23.0749 70.4286 -21.9646 -8.13672 25.236 3.48744 
54.7659 71.4119 26.6337 2.12987 35.0498 -4.0411 0.934911 2.88389 -0.209988 1.90402 9.76501 -0.592275 1.91743 11.4095 -0.626161 -11.6987 -34.0787 -5.60625 2.30936 -6.30614 -3.1356 42.7764 -11.617 -7.52467 123.489 30.301 -56.1626 1.5879e-007 1.65327e-006 -2.35834e-006 23.6408 81.0323 -23.0285 1.86571e-006 -6.13156e-006 -3 8.02887 -4.95093 0.697502 -55.1678 -10.4047 6.48037 -112.997 28.8346 45.3526 -6.37977e-006 8.75591e-007 4.63666e-006 2.24379 70.8002 -3.33966 2.2234e-006 7.34643e-006 2.99997 -8.02897 -4.95139 -0.69765 40.9268 77.7796 139.56 180 1.52583e-005 179.542 167.451 69.7571 -173.775 -5.41661e-007 -1.62237e-006 1.00111 -19.8408 69.0294 20.4389 8.13649 25.2327 -3.48765 -56.3869 74.4948 -126.607 4.47153e-006 -3.51245e-005 -0.594347 -17.5915 -70.8879 -10.134 1.01982e-006 -1.14719e-006 -1.42324 23.1219 70.4824 -22.0245 -8.13672 25.236 3.48744 
